<mxfile host="app.diagrams.net" modified="2024-01-29T06:15:07.910Z" agent="Mozilla/5.0 (X11; CrOS x86_64 14541.0.0) AppleWebKit/537.36 (KHTML, like Gecko) Chrome/120.0.0.0 Safari/537.36" version="23.0.2" etag="Jbrl3wzX2y9mh5PFmJ_L" type="github">
  <diagram name="Page-1" id="ECaSecSAJkpEN4TLQkDk">
    <mxGraphModel>
      <root>
        <mxCell id="0" />
        <mxCell id="1" parent="0" />
      </root>
    </mxGraphModel>
  </diagram>
</mxfile>
